<svg xmlns="http://www.w3.org/2000/svg" viewBox="0 0 512 512">
  <rect width="512" height="512" rx="112" fill="#151310"/>
  <circle cx="256" cy="256" r="184" fill="none" stroke="#d8772e" stroke-width="12"/>
  <path d="M176 152h104c55 0 88 28 88 73 0 25-12 45-34 57 31 12 48 35 48 68 0 54-40 86-108 86h-98V152zm80 113c31 0 47-12 47-36 0-23-16-34-47-34h-19v70h19zm12 128c34 0 51-14 51-42 0-27-18-40-53-40h-29v82h31z" fill="#f7f1e7"/>
  <path d="M154 112h204" stroke="#d8772e" stroke-width="10" stroke-linecap="round"/>
</svg>

